<svg width="676" height="506" viewBox="0 0 676 506" fill="none" xmlns="http://www.w3.org/2000/svg">
<g opacity="0.9">
<path d="M591.842 434.148L71.8425 419.249C47.6425 418.548 27.7425 400.048 25.3425 375.948L0.24249 127.948C-2.55751 99.8485 19.2425 75.3485 47.4425 74.9485L626.242 66.9485C655.443 66.5485 678.342 92.0485 674.742 121.048L641.042 391.949C637.943 416.549 616.642 434.848 591.842 434.148Z" fill="#EAF9F3"/>
<mask id="mask0_301_5843" style="mask-type:alpha" maskUnits="userSpaceOnUse" x="0" y="66" width="676" height="369">
<path d="M591.842 434.148L71.8425 419.249C47.6425 418.548 27.7425 400.048 25.3425 375.948L0.24249 127.948C-2.55751 99.8485 19.2425 75.3485 47.4425 74.9485L626.242 66.9485C655.443 66.5485 678.342 92.0485 674.742 121.048L641.042 391.949C637.943 416.549 616.642 434.848 591.842 434.148Z" fill="#EAF9F3"/>
</mask>
<g mask="url(#mask0_301_5843)">
<path d="M444.843 560.448H860.343C868.643 560.448 875.343 553.748 875.343 545.448V309.748C875.343 301.448 868.643 294.748 860.343 294.748H444.843C436.543 294.748 429.843 301.448 429.843 309.748V545.348C429.843 553.648 436.543 560.448 444.843 560.448Z" stroke="#B8D8C7" stroke-width="1.8" stroke-miterlimit="10" stroke-linecap="round" stroke-linejoin="round"/>
<path d="M-59.7573 497.848H359.343C367.643 497.848 374.343 491.148 374.343 482.848V138.548C374.343 130.248 367.643 123.548 359.343 123.548H-59.7573C-68.0573 123.548 -74.7573 130.248 -74.7573 138.548V482.848C-74.7573 491.148 -68.0573 497.848 -59.7573 497.848Z" stroke="#B8D8C7" stroke-width="1.8" stroke-miterlimit="10" stroke-linecap="round" stroke-linejoin="round"/>
<path d="M103.343 228.448H123.643C125.843 228.448 127.643 226.848 127.943 224.648L129.543 210.249C129.843 207.749 127.843 205.448 125.243 205.448H101.743C99.1427 205.448 97.2427 207.649 97.4427 210.249L99.0427 224.648C99.3427 226.748 101.243 228.448 103.343 228.448Z" stroke="#B8D8C7" stroke-width="1.8" stroke-miterlimit="10" stroke-linecap="round" stroke-linejoin="round"/>
<path d="M115.943 205.448C115.943 205.448 123.943 204.648 125.543 193.848C125.543 193.848 118.343 195.948 116.043 201.048C116.043 201.048 115.043 189.648 109.643 188.548C109.643 188.548 107.243 197.048 111.043 201.248C111.043 201.248 108.143 196.448 100.743 196.548C100.743 196.548 102.643 203.348 109.943 205.348" fill="#B8D8C7"/>
<path d="M448.043 344.448H538.243C540.543 344.448 542.443 342.548 542.443 340.248V312.848C542.443 310.548 540.543 308.648 538.243 308.648H448.043C445.743 308.648 443.843 310.548 443.843 312.848V340.248C443.743 342.548 445.643 344.448 448.043 344.448Z" stroke="#B8D8C7" stroke-width="1.8" stroke-miterlimit="10" stroke-linecap="round" stroke-linejoin="round"/>
<path d="M482.743 318.348H503.543C504.343 318.348 505.043 317.648 505.043 316.848C505.043 316.048 504.343 315.348 503.543 315.348H482.743C481.943 315.348 481.243 316.048 481.243 316.848C481.243 317.648 481.943 318.348 482.743 318.348Z" fill="#B8D8C7"/>
<path d="M448.043 390.249H538.243C540.543 390.249 542.443 388.348 542.443 386.048V358.648C542.443 356.348 540.543 354.448 538.243 354.448H448.043C445.743 354.448 443.843 356.348 443.843 358.648V386.048C443.743 388.348 445.643 390.249 448.043 390.249Z" stroke="#B8D8C7" stroke-width="1.8" stroke-miterlimit="10" stroke-linecap="round" stroke-linejoin="round"/>
<path d="M482.743 364.148H503.543C504.343 364.148 505.043 363.448 505.043 362.648C505.043 361.848 504.343 361.148 503.543 361.148H482.743C481.943 361.148 481.243 361.848 481.243 362.648C481.243 363.448 481.943 364.148 482.743 364.148Z" fill="#B8D8C7"/>
<path d="M29.3427 375.948H119.543C121.843 375.948 123.743 374.048 123.743 371.748V344.348C123.743 342.048 121.843 340.148 119.543 340.148H29.3427C27.0427 340.148 25.1427 342.048 25.1427 344.348V371.748C25.0427 374.048 26.9427 375.948 29.3427 375.948Z" stroke="#B8D8C7" stroke-width="1.8" stroke-miterlimit="10" stroke-linecap="round" stroke-linejoin="round"/>
<path d="M64.0427 349.748H84.8427C85.6427 349.748 86.3427 349.048 86.3427 348.248C86.3427 347.448 85.6427 346.748 84.8427 346.748H64.0427C63.2427 346.748 62.5427 347.448 62.5427 348.248C62.5427 349.148 63.2427 349.748 64.0427 349.748Z" fill="#B8D8C7"/>
<path d="M145.143 375.948H235.342C237.642 375.948 239.543 374.048 239.543 371.748V344.348C239.543 342.048 237.642 340.148 235.342 340.148H145.143C142.843 340.148 140.942 342.048 140.942 344.348V371.748C140.842 374.048 142.743 375.948 145.143 375.948Z" stroke="#B8D8C7" stroke-width="1.8" stroke-miterlimit="10" stroke-linecap="round" stroke-linejoin="round"/>
<path d="M179.843 349.748H200.643C201.443 349.748 202.143 349.048 202.143 348.248C202.143 347.448 201.443 346.748 200.643 346.748H179.843C179.043 346.748 178.343 347.448 178.343 348.248C178.343 349.148 179.043 349.748 179.843 349.748Z" fill="#B8D8C7"/>
<path d="M562.943 344.448H653.143C655.443 344.448 657.343 342.548 657.343 340.248V312.848C657.343 310.548 655.443 308.648 653.143 308.648H562.943C560.643 308.648 558.743 310.548 558.743 312.848V340.248C558.743 342.548 560.643 344.448 562.943 344.448Z" stroke="#B8D8C7" stroke-width="1.8" stroke-miterlimit="10" stroke-linecap="round" stroke-linejoin="round"/>
<path d="M597.743 318.348H618.543C619.343 318.348 620.043 317.648 620.043 316.848C620.043 316.048 619.343 315.348 618.543 315.348H597.743C596.943 315.348 596.243 316.048 596.243 316.848C596.243 317.648 596.843 318.348 597.743 318.348Z" fill="#B8D8C7"/>
<path d="M562.943 390.249H653.143C655.443 390.249 657.343 388.348 657.343 386.048V358.648C657.343 356.348 655.443 354.448 653.143 354.448H562.943C560.643 354.448 558.743 356.348 558.743 358.648V386.048C558.743 388.348 560.643 390.249 562.943 390.249Z" stroke="#B8D8C7" stroke-width="1.8" stroke-miterlimit="10" stroke-linecap="round" stroke-linejoin="round"/>
<path d="M597.743 364.148H618.543C619.343 364.148 620.043 363.448 620.043 362.648C620.043 361.848 619.343 361.148 618.543 361.148H597.743C596.943 361.148 596.243 361.848 596.243 362.648C596.243 363.448 596.843 364.148 597.743 364.148Z" fill="#B8D8C7"/>
<path d="M-102.057 228.448H352.943C355.443 228.448 357.543 226.348 357.543 223.848V144.148C357.543 141.648 355.443 139.548 352.943 139.548H-102.057C-104.557 139.548 -106.657 141.648 -106.657 144.148V223.848C-106.657 226.348 -104.557 228.448 -102.057 228.448Z" stroke="#B8D8C7" stroke-width="1.8" stroke-miterlimit="10" stroke-linecap="round" stroke-linejoin="round"/>
<path d="M-102.057 327.348H352.943C355.443 327.348 357.543 325.249 357.543 322.749V243.048C357.543 240.548 355.443 238.448 352.943 238.448H-102.057C-104.557 238.448 -106.657 240.548 -106.657 243.048V322.749C-106.657 325.249 -104.557 327.348 -102.057 327.348Z" stroke="#B8D8C7" stroke-width="1.8" stroke-miterlimit="10" stroke-linecap="round" stroke-linejoin="round"/>
<path d="M317.021 228.445H326.921V178.145H317.021V228.445Z" stroke="#B8D8C7" stroke-width="1.8" stroke-miterlimit="10" stroke-linecap="round" stroke-linejoin="round"/>
<path d="M306.778 228.359H317.078V191.759H306.778V228.359Z" stroke="#B8D8C7" stroke-width="1.8" stroke-miterlimit="10" stroke-linecap="round" stroke-linejoin="round"/>
<path d="M18.643 327.185H28.543L28.543 276.885H18.643L18.643 327.185Z" stroke="#B8D8C7" stroke-width="1.8" stroke-miterlimit="10" stroke-linecap="round" stroke-linejoin="round"/>
<path d="M8.40019 327.2H18.7002L18.7002 290.6H8.40019L8.40019 327.2Z" stroke="#B8D8C7" stroke-width="1.8" stroke-miterlimit="10" stroke-linecap="round" stroke-linejoin="round"/>
<path d="M38.8288 327.185H48.7288L48.7288 276.885H38.8288L38.8288 327.185Z" stroke="#B8D8C7" stroke-width="1.8" stroke-miterlimit="10" stroke-linecap="round" stroke-linejoin="round"/>
<path d="M63.7327 326.767L73.1733 323.786L58.028 275.82L48.5874 278.801L63.7327 326.767Z" stroke="#B8D8C7" stroke-width="1.8" stroke-miterlimit="10" stroke-linecap="round" stroke-linejoin="round"/>
<path d="M28.586 327.2H38.886L38.886 290.6H28.586L28.586 327.2Z" stroke="#B8D8C7" stroke-width="1.8" stroke-miterlimit="10" stroke-linecap="round" stroke-linejoin="round"/>
<path d="M152.22 228.445H162.12V178.145H152.22V228.445Z" stroke="#B8D8C7" stroke-width="1.8" stroke-miterlimit="10" stroke-linecap="round" stroke-linejoin="round"/>
<path d="M141.977 228.359H152.277V191.759H141.977V228.359Z" stroke="#B8D8C7" stroke-width="1.8" stroke-miterlimit="10" stroke-linecap="round" stroke-linejoin="round"/>
<path d="M249.947 228.445H259.847V178.145H249.947V228.445Z" stroke="#B8D8C7" stroke-width="1.8" stroke-miterlimit="10" stroke-linecap="round" stroke-linejoin="round"/>
<path d="M274.846 227.942L284.287 224.961L269.142 176.995L259.701 179.976L274.846 227.942Z" stroke="#B8D8C7" stroke-width="1.8" stroke-miterlimit="10" stroke-linecap="round" stroke-linejoin="round"/>
<path d="M239.704 228.359H250.004V191.759H239.704V228.359Z" stroke="#B8D8C7" stroke-width="1.8" stroke-miterlimit="10" stroke-linecap="round" stroke-linejoin="round"/>
<path d="M18.8425 184.648L17.7425 169.749C17.6425 168.749 18.4425 167.948 19.4425 167.948H23.7425H28.0425C29.0425 167.948 29.7425 168.749 29.7425 169.749L28.6425 184.648C28.6425 184.648 37.6425 190.449 37.5425 195.249C37.4425 198.949 35.2425 216.648 34.2425 224.448C33.9425 226.648 32.1425 228.249 29.9425 228.249H23.7425H17.5425C15.3425 228.249 13.5425 226.648 13.2425 224.448C12.2425 216.648 10.0425 198.949 9.94248 195.249C9.84248 190.449 18.8425 184.648 18.8425 184.648Z" fill="#B8D8C7"/>
<path d="M679.843 409.148L-277.357 399.648" stroke="#B8D8C7" stroke-width="1.8" stroke-miterlimit="10" stroke-linecap="round" stroke-linejoin="round"/>
</g>
<path d="M326.943 264.549L307.443 420.349C307.243 422.049 308.543 423.549 310.243 423.549C311.643 423.549 312.843 422.548 313.043 421.148L335.343 268.449L326.943 264.549Z" fill="#B8D8C7"/>
<path d="M387.543 286.849L407.043 442.648C407.243 444.348 405.943 445.849 404.243 445.849C402.843 445.849 401.643 444.849 401.443 443.449L379.143 290.749L387.543 286.849Z" fill="#B8D8C7"/>
<path d="M292.943 280.749L266.743 435.549C266.443 437.249 267.743 438.749 269.443 438.849C270.843 438.949 272.043 437.949 272.343 436.549L301.243 284.949L292.943 280.749Z" fill="#B8D8C7"/>
<path d="M366.343 265.249L380.743 421.549C380.943 423.249 382.543 424.449 384.143 424.049C385.543 423.749 386.443 422.449 386.343 421.148L375.443 267.149L366.343 265.249Z" fill="#B8D8C7"/>
<path d="M408.043 126.148C397.143 124.348 361.043 250.749 361.043 250.749H395.743C395.743 250.749 378.743 271.048 378.143 272.948C377.543 274.848 371.343 300.548 371.343 300.548C412.843 287.348 403.643 250.648 403.643 250.648C394.743 223.148 407.143 187.948 412.443 158.848C417.743 129.648 408.043 126.148 408.043 126.148Z" fill="#96E1FF"/>
<path d="M279.443 293.849C279.443 293.849 280.343 307.549 316.043 309.549C351.743 311.549 397.743 308.049 403.743 267.549C403.843 267.549 286.643 282.449 279.443 293.849Z" fill="#96E1FF"/>
<path d="M394.943 247.949C385.243 212.549 422.743 133.449 408.143 126.049C393.143 118.549 335.543 121.649 320.043 135.049C305.543 147.649 298.943 241.048 298.143 252.848C298.043 253.248 298.043 253.649 298.043 254.049C298.043 261.049 297.043 272.849 291.943 276.549C282.043 283.749 265.743 294.649 296.943 302.649C296.943 302.649 310.443 305.749 348.943 304.149C401.043 301.949 395.843 269.849 395.743 250.649C395.743 249.749 395.443 248.849 394.943 247.949Z" fill="white"/>
<path d="M255.742 427.549C255.742 427.549 260.142 448.549 261.142 450.249C262.142 451.949 269.642 455.649 279.842 452.649C290.042 449.549 290.342 445.849 290.342 445.849C290.342 445.849 288.342 421.749 288.342 419.049C288.242 416.349 254.042 411.549 255.742 427.549Z" fill="#B28D93"/>
<path d="M289.342 434.349C288.842 427.749 288.242 420.449 288.242 419.049C288.242 416.349 253.942 411.549 255.642 427.549C255.642 427.549 256.342 430.749 257.142 434.749C267.942 437.649 279.042 437.449 289.342 434.349Z" fill="#896068"/>
<path d="M260.043 446.649C260.043 446.649 258.843 448.549 258.843 458.449C258.843 468.349 243.843 490.749 244.843 496.849C245.843 502.949 288.043 504.449 291.843 499.949C295.643 495.349 291.643 462.249 291.943 458.749C292.143 455.149 293.543 448.649 290.143 444.449C290.143 444.449 286.643 447.949 283.843 448.549C281.043 449.149 278.443 443.449 272.943 442.449C267.443 441.449 263.843 447.949 263.243 448.549C262.643 449.149 260.243 448.349 260.043 446.649Z" fill="#223145"/>
<path d="M261.843 470.049C261.843 470.049 270.343 464.149 283.843 470.849" stroke="white" stroke-width="1.8" stroke-miterlimit="10" stroke-linecap="round" stroke-linejoin="round"/>
<path d="M258.542 479.449C258.542 479.449 270.342 471.148 283.942 481.148" stroke="white" stroke-width="1.8" stroke-miterlimit="10" stroke-linecap="round" stroke-linejoin="round"/>
<path d="M364.442 438.949C364.442 438.949 371.242 457.948 374.942 461.348C378.642 464.748 388.542 465.048 395.342 461.348C402.142 457.648 401.842 452.049 401.842 452.049C401.842 452.049 395.942 420.948 394.642 420.148C393.242 419.248 364.442 429.849 364.442 438.949Z" fill="#B28D93"/>
<path d="M364.442 438.949C364.442 438.949 366.142 443.648 368.242 448.848C379.842 450.848 389.942 446.948 399.742 441.348C397.942 432.248 395.442 420.648 394.642 420.148C393.242 419.248 364.442 429.849 364.442 438.949Z" fill="#896068"/>
<path d="M371.842 456.049C371.842 456.049 370.942 456.349 373.542 464.749C374.842 469.249 360.442 492.349 360.742 498.049C361.042 503.749 373.042 504.749 382.542 505.049C397.042 505.449 406.542 502.549 407.342 493.249C408.142 483.949 405.642 465.849 405.642 461.849C405.642 457.849 404.342 453.249 401.042 447.849C401.042 447.849 401.342 455.349 398.342 456.749C395.342 458.249 389.742 452.749 385.442 453.849C381.142 454.949 379.342 458.248 377.542 460.148C375.742 461.948 372.342 457.149 371.842 456.049Z" fill="#223145"/>
<path d="M376.242 475.449C376.242 475.449 384.042 467.649 397.742 473.649" stroke="white" stroke-width="1.8" stroke-miterlimit="10" stroke-linecap="round" stroke-linejoin="round"/>
<path d="M371.942 484.349C371.942 484.349 384.242 474.149 397.642 483.549" stroke="white" stroke-width="1.8" stroke-miterlimit="10" stroke-linecap="round" stroke-linejoin="round"/>
<path d="M294.243 248.649C294.243 248.649 248.343 273.949 236.243 297.149C224.143 320.349 243.043 394.249 242.743 409.849C242.443 425.449 244.443 427.749 253.143 431.049C261.843 434.349 280.743 433.649 288.643 427.749C298.843 420.149 294.143 406.249 291.843 389.449C289.543 372.749 288.443 323.049 288.443 323.049C288.443 323.049 310.043 305.549 320.643 300.349C322.743 299.249 325.043 298.849 327.143 298.649C330.443 298.449 332.843 301.549 331.943 304.649C329.343 313.849 325.643 336.949 327.143 347.549C328.543 357.449 335.443 381.949 348.943 423.449C351.643 431.649 352.543 438.249 355.843 441.049C369.743 452.749 399.942 440.249 403.142 429.349C404.442 424.849 401.142 409.549 396.842 392.849C390.742 368.949 382.542 342.149 383.142 339.249C384.142 334.349 397.042 289.349 393.642 269.149C385.442 220.249 347.543 239.949 294.243 248.649Z" fill="#223145"/>
<path d="M250.642 327.749C258.982 327.749 265.742 320.361 265.742 311.249C265.742 302.136 258.982 294.749 250.642 294.749C242.303 294.749 235.542 302.136 235.542 311.249C235.542 320.361 242.303 327.749 250.642 327.749Z" stroke="#63737A" stroke-width="1.8" stroke-miterlimit="10" stroke-linecap="round" stroke-linejoin="round"/>
<path d="M350.729 364.192C359.264 363.018 365.171 354.704 363.923 345.621C362.674 336.539 354.742 330.127 346.207 331.3C337.671 332.474 331.764 340.788 333.013 349.871C334.262 358.953 342.193 365.365 350.729 364.192Z" stroke="#63737A" stroke-width="1.8" stroke-miterlimit="10" stroke-linecap="round" stroke-linejoin="round"/>
<path d="M288.442 323.049C288.442 323.049 287.842 316.849 285.942 313.549" stroke="#63737A" stroke-width="1.8" stroke-miterlimit="10" stroke-linecap="round" stroke-linejoin="round"/>
<path d="M328.442 298.348C328.442 298.348 329.542 291.448 327.742 289.448" stroke="#63737A" stroke-width="1.8" stroke-miterlimit="10" stroke-linecap="round" stroke-linejoin="round"/>
<path d="M316.042 290.249C316.042 290.249 323.443 289.649 339.443 290.249" stroke="#63737A" stroke-width="1.8" stroke-miterlimit="10" stroke-linecap="round" stroke-linejoin="round"/>
<path d="M300.143 146.948C300.143 146.948 294.343 149.048 285.343 162.648C276.643 175.748 268.843 183.948 268.843 183.948C268.843 183.948 258.543 172.648 247.743 165.448C236.943 158.248 224.643 146.948 224.643 146.948C224.643 146.948 216.543 142.548 211.443 148.548C206.343 154.448 208.943 163.248 208.943 163.248C208.943 163.248 221.043 179.648 238.843 201.048C250.443 215.048 262.243 225.048 272.143 221.948C285.343 217.848 311.343 194.248 315.843 184.848C320.243 175.348 316.943 143.548 300.143 146.948Z" fill="#6DAFA7"/>
<path d="M268.743 183.948C268.743 183.948 272.343 188.348 274.043 193.848" stroke="#223145" stroke-width="1.8" stroke-miterlimit="10" stroke-linecap="round" stroke-linejoin="round"/>
<path d="M225.043 147.448C225.043 147.448 217.043 140.848 211.343 141.448C203.943 142.248 204.043 140.548 199.343 141.548C197.143 142.048 193.143 143.648 188.943 148.848C184.743 154.048 183.243 156.748 183.243 156.748C183.243 156.748 178.843 147.348 176.143 148.848C173.443 150.248 179.843 164.748 182.043 166.248C184.243 167.748 190.743 165.148 193.043 166.248C195.343 167.348 201.543 165.348 201.543 165.348L210.043 163.248L212.243 165.648C212.943 166.448 214.043 166.648 215.043 166.348C217.043 165.548 220.443 163.648 222.643 158.948C226.143 151.648 225.043 147.448 225.043 147.448Z" fill="#B28D93"/>
<path d="M183.243 156.748C183.243 156.748 178.843 147.348 176.143 148.848C173.443 150.248 179.843 164.748 182.043 166.248C184.243 167.748 190.743 165.148 193.043 166.248" stroke="#896068" stroke-width="1.8" stroke-miterlimit="10" stroke-linecap="round" stroke-linejoin="round"/>
<path d="M214.743 153.848C214.743 153.848 211.843 161.448 208.243 166.348C204.543 171.248 199.243 171.448 196.843 169.848C194.443 168.348 197.643 157.248 198.343 154.548C199.043 151.848 201.243 149.348 202.643 152.348C203.743 154.648 202.143 160.148 202.443 164.548" fill="#B28D93"/>
<path d="M198.143 168.948C198.143 168.948 195.043 170.848 193.243 170.248C191.443 169.648 190.343 168.348 190.043 165.648C189.743 163.048 190.743 154.848 190.643 152.748C190.543 150.648 193.843 148.948 195.243 153.748C196.643 158.648 195.943 162.748 196.843 163.748" fill="#B28D93"/>
<path d="M191.343 167.548C191.343 167.548 189.043 168.748 186.643 168.948C184.243 169.148 183.143 167.548 182.343 162.648C181.443 156.748 180.743 150.748 182.843 150.448C184.943 150.148 186.043 153.348 186.843 156.648C187.643 159.948 188.143 162.048 188.643 162.148" fill="#B28D93"/>
<path d="M200.343 141.448C200.343 141.448 194.643 141.848 192.543 141.848C190.543 141.848 184.943 140.448 183.743 142.148C182.543 143.848 185.943 146.948 192.043 147.748C198.143 148.648 204.043 143.748 200.343 141.448Z" fill="#B28D93"/>
<path d="M214.743 170.948C214.743 170.948 222.643 173.548 228.143 165.648C233.043 158.648 231.143 152.648 231.143 152.648" stroke="#223145" stroke-width="1.8" stroke-miterlimit="10" stroke-linecap="round" stroke-linejoin="round"/>
<path d="M256.143 217.948C256.143 217.948 254.243 215.648 259.143 214.248C264.143 212.848 283.143 212.048 280.843 217.548" stroke="#223145" stroke-width="1.8" stroke-miterlimit="10" stroke-linecap="round" stroke-linejoin="round"/>
<path d="M214.743 153.848C214.743 153.848 211.843 161.448 208.243 166.348C204.543 171.248 199.243 171.448 196.843 169.848C194.443 168.348 197.643 157.248 198.343 154.548C199.043 151.848 201.243 149.348 202.643 152.348C203.743 154.648 202.143 160.148 202.443 164.548" stroke="#896068" stroke-width="1.8" stroke-miterlimit="10" stroke-linecap="round" stroke-linejoin="round"/>
<path d="M196.243 169.848C195.243 170.248 194.143 170.548 193.243 170.248C191.443 169.648 190.343 168.348 190.043 165.648C189.743 163.048 190.743 154.848 190.643 152.748C190.543 150.648 193.843 148.948 195.243 153.748C196.243 157.348 196.143 160.448 196.443 162.348" stroke="#896068" stroke-width="1.8" stroke-miterlimit="10" stroke-linecap="round" stroke-linejoin="round"/>
<path d="M190.543 167.848C189.643 168.248 188.243 168.748 186.643 168.848C184.243 169.048 183.143 167.448 182.343 162.548C181.443 156.648 180.743 150.648 182.843 150.348C184.943 150.048 186.043 153.248 186.843 156.548C187.643 159.848 188.143 161.948 188.643 162.048" stroke="#896068" stroke-width="1.8" stroke-miterlimit="10" stroke-linecap="round" stroke-linejoin="round"/>
<path d="M190.243 147.548C190.243 147.548 193.343 144.448 195.843 143.048" stroke="#896068" stroke-width="1.8" stroke-miterlimit="10" stroke-linecap="round" stroke-linejoin="round"/>
<path d="M311.143 93.6485C311.043 91.8485 311.143 90.0485 311.443 88.2485C312.243 84.0485 314.343 75.2485 317.843 72.3485C323.043 68.0485 325.843 74.4485 325.843 74.4485C325.843 74.4485 329.443 69.7485 332.843 70.2485C336.243 70.6485 338.043 74.7485 338.043 74.7485C338.043 74.7485 343.543 70.2485 346.843 72.4485C350.143 74.5485 351.043 78.0485 351.043 78.0485C351.043 78.0485 354.543 74.0485 358.243 75.6485C361.943 77.3485 362.643 86.7485 362.643 86.7485C362.643 86.7485 366.343 88.8485 367.143 96.1485C368.043 103.948 364.243 115.448 356.443 128.648C356.443 128.648 340.343 99.6485 330.143 95.5485C319.943 91.4485 320.043 99.0485 316.843 99.2485C314.043 99.3485 311.643 99.0485 311.143 93.6485Z" fill="#223145"/>
<path d="M313.143 147.748C313.143 147.748 300.643 149.248 315.243 136.048C327.843 124.648 369.843 127.848 375.243 137.648C379.243 144.948 384.343 164.448 367.343 176.148C350.343 187.748 320.743 175.448 313.143 147.748Z" fill="#6DAFA7"/>
<path d="M337.143 144.048C337.143 144.048 348.843 143.548 358.643 143.148C368.343 142.648 382.743 142.948 390.643 153.748C399.743 166.048 386.043 208.448 384.043 219.248C382.043 230.048 389.743 243.048 389.343 251.948C389.143 257.048 382.743 270.448 354.343 272.948C322.243 275.848 293.943 269.248 290.843 250.748C288.743 238.348 296.943 229.648 294.143 209.448C292.643 198.848 290.743 164.548 294.343 154.848C297.943 145.148 303.943 141.948 337.143 144.048Z" fill="#96E1FF"/>
<path d="M325.143 134.249C325.143 134.249 323.743 145.349 323.143 148.249C322.643 151.149 324.143 159.349 335.743 159.249C348.243 159.149 356.043 149.149 356.343 145.149C356.643 141.149 355.643 121.849 357.343 115.449C359.043 109.049 343.043 112.749 336.143 116.749C329.243 120.749 324.443 130.949 325.143 134.249Z" fill="#B28D93"/>
<path d="M345.843 133.349C339.343 134.849 331.343 140.449 324.443 139.349C324.243 141.049 323.943 142.849 323.743 144.449C332.943 145.949 341.643 140.149 345.843 133.349Z" fill="#896068"/>
<path d="M324.143 141.748C324.143 141.748 322.543 153.248 332.243 158.948C332.243 158.948 343.443 157.948 351.643 149.948C354.743 146.948 356.343 142.748 356.343 138.448V137.548C356.343 137.548 372.043 137.748 376.543 142.448C385.143 151.448 349.843 165.748 330.643 168.748C330.643 168.748 312.843 158.848 308.643 148.748C304.443 138.548 322.743 142.148 324.143 141.748Z" fill="#6DAFA7"/>
<path d="M327.342 162.448C327.342 162.448 322.742 175.949 321.542 191.749" stroke="#223145" stroke-width="1.8" stroke-miterlimit="10" stroke-linecap="round" stroke-linejoin="round"/>
<path d="M323.843 192.949C323.943 191.649 323.243 187.649 321.943 187.549C320.643 187.449 319.143 191.249 319.043 192.549C318.943 193.849 319.943 195.049 321.243 195.149C322.543 195.349 323.743 194.349 323.843 192.949Z" fill="#6DAFA7"/>
<path d="M339.043 162.749C339.043 162.749 337.643 176.949 340.143 192.549" stroke="#223145" stroke-width="1.8" stroke-miterlimit="10" stroke-linecap="round" stroke-linejoin="round"/>
<path d="M342.742 193.349C342.542 192.049 340.942 188.349 339.642 188.549C338.342 188.749 337.742 192.749 337.942 194.049C338.142 195.349 339.342 196.349 340.742 196.149C342.042 195.849 342.942 194.649 342.742 193.349Z" fill="#6DAFA7"/>
<path d="M302.543 238.348C303.843 236.348 307.843 229.148 308.643 221.248C308.843 219.248 310.643 217.848 312.543 218.048C319.943 218.848 336.443 220.348 348.843 219.248C350.843 219.048 352.543 220.548 352.743 222.548C353.143 226.848 355.043 234.148 362.443 241.248C363.043 241.748 363.443 242.448 363.543 243.248C364.043 245.948 365.143 252.548 364.843 258.148C364.443 265.048 318.043 269.748 302.043 255.548C301.243 254.848 300.843 253.748 300.843 252.748C300.943 250.048 301.343 244.448 302.043 239.848C302.143 239.148 302.343 238.748 302.543 238.348Z" fill="#6DAFA7"/>
<path d="M312.043 98.3485C312.043 98.3485 311.843 108.148 310.943 116.548C310.143 124.948 310.943 136.148 324.443 139.648C337.943 143.148 351.043 132.948 355.943 119.548C360.843 106.148 361.043 88.0485 343.843 80.9485C326.643 73.8485 312.843 82.7485 312.043 98.3485Z" fill="#B28D93"/>
<path d="M362.343 106.948C361.043 113.248 360.143 116.649 360.143 116.649L355.943 112.248C355.943 112.248 348.743 111.248 347.743 98.3485C347.543 96.1485 346.343 94.1485 344.343 93.1485C338.443 90.0485 335.343 94.6485 323.843 93.8485C319.943 93.5485 313.943 92.9485 314.143 86.9485C314.643 71.3485 338.743 72.5485 350.143 79.6485C361.543 86.6485 363.643 100.748 362.343 106.948Z" fill="#223145"/>
<path d="M351.143 113.149C351.143 113.149 353.743 107.249 358.043 107.849C362.643 108.449 363.043 122.249 351.143 123.049" fill="#B28D93"/>
<path d="M318.343 105.448C318.543 106.848 318.543 108.248 318.443 109.548C318.343 110.948 318.143 112.348 317.643 113.648C317.543 113.948 317.343 114.348 317.243 114.648C317.143 114.948 317.043 115.148 316.943 115.448C316.843 115.948 316.843 116.348 317.043 116.748C317.443 117.648 318.643 118.348 319.943 118.848C319.243 119.048 318.543 119.048 317.743 118.848C317.043 118.648 316.243 118.248 315.743 117.548C315.443 117.248 315.243 116.748 315.143 116.348C315.043 115.848 315.043 115.448 315.143 115.048C315.243 114.648 315.443 114.148 315.543 113.948C315.643 113.648 315.843 113.348 315.943 113.148C316.943 110.648 317.443 108.048 318.343 105.448Z" fill="#223145"/>
<path d="M323.943 127.048C323.943 127.048 324.643 125.548 326.343 126.848C328.043 128.148 328.743 127.648 329.643 126.548C330.543 125.448 330.943 127.548 332.943 126.748" stroke="#223145" stroke-width="1.8" stroke-miterlimit="10" stroke-linecap="round" stroke-linejoin="round"/>
<path d="M332.543 102.948C332.043 102.348 331.943 100.148 333.943 99.2485C335.943 98.3485 339.243 99.8485 341.143 101.849C343.043 103.849 342.043 104.849 339.743 103.849C337.343 102.949 336.443 102.649 334.443 103.349C333.643 103.649 332.843 103.448 332.543 102.948Z" fill="#223145"/>
<path d="M318.343 101.949C318.743 101.449 319.043 99.5485 317.643 98.5485C316.243 97.5485 313.943 98.5485 312.743 100.149C311.643 101.549 312.143 102.349 313.643 101.949C315.143 101.449 315.743 101.349 317.043 102.149C317.543 102.449 318.043 102.249 318.343 101.949Z" fill="#223145"/>
<path d="M358.343 113.348C357.943 113.148 357.543 112.948 357.243 112.948C356.943 112.948 356.843 113.048 356.743 113.248C356.543 113.748 356.343 114.348 356.343 115.148C356.243 115.848 356.243 116.848 355.643 117.848C355.343 118.348 354.843 118.648 354.343 118.748C354.143 118.848 353.843 118.848 353.643 118.848C353.443 118.848 353.143 118.748 352.943 118.748C353.743 118.248 354.343 117.748 354.343 117.248C354.443 116.748 354.443 115.948 354.543 115.048C354.643 114.148 354.843 113.148 355.743 112.348C355.943 112.148 356.343 111.948 356.643 111.948C357.043 111.948 357.343 112.048 357.543 112.148C357.943 112.548 358.243 112.948 358.343 113.348Z" fill="#223145"/>
<path d="M315.743 110.648C316.543 110.748 317.343 110.148 317.343 109.348L317.443 108.448C317.543 107.648 316.943 106.848 316.143 106.848C315.343 106.748 314.543 107.348 314.543 108.148L314.443 109.048C314.243 109.748 314.843 110.548 315.743 110.648Z" fill="#223145"/>
<path d="M333.643 112.349C334.443 112.449 335.243 111.849 335.243 111.049L335.343 110.149C335.443 109.349 334.843 108.549 334.043 108.549C333.243 108.449 332.443 109.049 332.443 109.849L332.343 110.748C332.243 111.448 332.843 112.249 333.643 112.349Z" fill="#223145"/>
<path d="M385.243 151.449C387.543 151.349 389.743 152.349 391.443 153.949C393.443 155.849 397.643 159.849 405.843 167.549C419.043 180.049 420.843 182.449 420.843 182.449C420.843 182.449 432.443 191.549 433.643 202.849C434.843 214.149 427.243 229.349 407.443 216.649C387.643 203.949 378.043 195.449 374.043 186.849C370.443 179.149 372.543 151.749 385.243 151.449Z" fill="#6DAFA7"/>
<path d="M414.943 193.349C414.943 193.349 419.443 182.949 429.843 173.049C440.243 163.149 452.543 150.949 454.843 148.549C457.143 146.049 462.743 140.649 470.343 146.549C478.043 152.449 473.543 162.749 473.543 162.749C473.543 162.749 460.243 184.149 449.243 202.349C438.243 220.549 427.043 226.549 412.843 219.649C398.543 212.649 414.943 193.349 414.943 193.349Z" fill="#6DAFA7"/>
<path d="M454.843 150.048C454.843 150.048 460.543 142.348 462.843 139.648C465.143 136.948 469.343 132.848 474.843 134.448C480.443 136.048 483.243 132.648 487.443 137.048C491.643 141.448 494.543 149.548 497.243 152.548C499.943 155.548 499.243 156.348 503.543 156.248C507.843 156.148 511.343 157.148 509.543 159.548C507.743 161.948 496.043 162.548 494.443 162.348C492.843 162.148 485.343 163.148 483.443 162.248C481.543 161.348 481.843 162.148 480.243 161.248C478.643 160.348 474.543 158.348 474.543 158.348C474.543 158.348 473.243 160.948 471.543 162.748C469.843 164.548 462.443 164.248 457.643 158.648C453.543 153.848 454.843 150.048 454.843 150.048Z" fill="#B28D93"/>
<path d="M497.243 152.648C499.943 155.648 499.243 156.448 503.543 156.348C507.843 156.248 511.343 157.248 509.543 159.648C507.743 162.048 496.043 162.648 494.443 162.448" stroke="#896068" stroke-width="1.8" stroke-miterlimit="10" stroke-linecap="round" stroke-linejoin="round"/>
<path d="M480.643 159.148C480.843 153.848 482.543 149.648 484.143 150.248C485.843 150.848 486.643 162.148 482.843 164.748C478.943 167.348 468.843 153.348 466.843 152.448" fill="#B28D93"/>
<path d="M482.343 163.848C482.343 163.848 484.443 167.948 487.543 165.948C490.643 164.048 493.743 154.748 494.343 152.748C495.043 150.748 491.143 149.948 488.643 154.848C486.243 159.748 484.343 160.448 484.343 160.448" fill="#B28D93"/>
<path d="M488.343 164.249C488.343 164.249 489.743 166.849 492.843 166.049C495.943 165.249 499.943 159.049 501.843 157.049C503.743 155.049 501.343 152.449 498.043 154.849C494.743 157.249 492.343 159.549 490.743 160.049" fill="#B28D93"/>
<path d="M486.043 135.948C486.043 135.948 488.443 137.148 491.543 141.348C494.743 145.548 500.643 146.148 501.343 148.348C502.043 150.548 495.743 151.448 490.743 149.048C485.843 146.548 483.843 136.448 486.043 135.948Z" fill="#B28D93"/>
<path d="M448.543 154.849C448.543 154.849 447.043 161.649 453.243 167.149C460.843 173.949 468.843 170.149 468.843 170.149" stroke="#223145" stroke-width="1.8" stroke-miterlimit="10" stroke-linecap="round" stroke-linejoin="round"/>
<path d="M412.743 219.548C412.743 219.548 410.443 216.148 418.043 214.448C425.643 212.748 438.543 211.848 437.243 217.048" stroke="#223145" stroke-width="1.8" stroke-miterlimit="10" stroke-linecap="round" stroke-linejoin="round"/>
<path d="M480.643 159.148C480.843 153.848 482.543 149.648 484.143 150.248C485.843 150.848 486.643 162.148 482.843 164.748C478.943 167.348 468.843 153.348 466.843 152.448" stroke="#896068" stroke-width="1.8" stroke-miterlimit="10" stroke-linecap="round" stroke-linejoin="round"/>
<path d="M487.543 165.948C490.643 164.048 493.743 154.748 494.343 152.748C495.043 150.748 491.143 149.948 488.643 154.848C487.243 157.748 485.943 159.148 485.243 159.848" stroke="#896068" stroke-width="1.8" stroke-miterlimit="10" stroke-linecap="round" stroke-linejoin="round"/>
<path d="M489.143 165.149C489.843 165.749 491.043 166.449 492.843 165.949C495.943 165.149 499.943 158.949 501.843 156.949C503.743 154.949 501.343 152.349 498.043 154.749C495.443 156.549 493.443 158.449 491.943 159.349" stroke="#896068" stroke-width="1.8" stroke-miterlimit="10" stroke-linecap="round" stroke-linejoin="round"/>
<path d="M495.743 150.448C495.743 150.448 493.043 145.848 492.043 144.548" stroke="#896068" stroke-width="1.8" stroke-miterlimit="10" stroke-linecap="round" stroke-linejoin="round"/>
<path d="M421.343 182.749C421.343 182.749 415.743 189.249 414.543 197.049" stroke="#223145" stroke-width="1.8" stroke-miterlimit="10" stroke-linecap="round" stroke-linejoin="round"/>
<path d="M114.943 211.948H80.3427C79.0427 211.948 77.6427 210.848 77.3427 209.548L72.3427 188.848C72.0427 187.548 72.8427 186.448 74.2427 186.448H108.843C110.143 186.448 111.543 187.548 111.843 188.848L116.843 209.548C117.143 210.848 116.343 211.948 114.943 211.948Z" fill="#6DAFA7"/>
<path d="M72.8428 186.948L92.4428 197.948C93.7428 198.748 95.2428 198.748 96.2428 197.948L110.543 186.948" stroke="#223145" stroke-width="1.8" stroke-miterlimit="10" stroke-linecap="round" stroke-linejoin="round"/>
<path d="M589.142 213.848L510.342 209.148C508.442 209.048 507.142 207.148 507.742 205.348L529.742 135.448C530.342 133.648 531.942 132.348 533.842 132.148L616.042 126.148C618.142 125.948 619.642 127.948 619.042 129.948L593.842 210.548C593.242 212.648 591.242 214.048 589.142 213.848Z" fill="#63737A"/>
<path d="M586.243 212.049L507.443 207.348C505.543 207.248 504.243 205.349 504.843 203.549L526.843 133.649C527.443 131.849 529.043 130.548 530.943 130.348L613.142 124.349C615.242 124.149 616.742 126.149 616.142 128.149L590.943 208.749C590.343 210.849 588.343 212.249 586.243 212.049Z" fill="#223145"/>
<path d="M545.843 143.849L531.943 144.549C531.443 144.549 531.143 144.149 531.243 143.649L532.243 140.449C532.443 139.949 532.843 139.649 533.343 139.649L547.343 138.849C547.843 138.849 548.143 139.249 548.043 139.749L546.943 143.049C546.743 143.449 546.343 143.749 545.843 143.849Z" fill="#96E1FF"/>
<path d="M516.843 198.149C515.443 198.049 514.443 196.749 514.843 195.349L521.443 174.549C521.743 173.649 522.543 173.049 523.443 173.049C524.843 173.049 525.943 174.449 525.443 175.849L518.843 196.649C518.743 197.549 517.843 198.249 516.843 198.149Z" fill="#96E1FF"/>
<path d="M526.743 198.549C525.243 198.449 524.243 197.049 524.743 195.649L535.343 161.949C535.643 161.049 536.443 160.449 537.443 160.349C538.943 160.349 540.043 161.749 539.643 163.249L529.043 196.949C528.643 198.049 527.743 198.649 526.743 198.549Z" fill="#63737A"/>
<path d="M536.942 199.049C535.442 198.949 534.442 197.549 534.842 196.049L539.242 182.149C539.542 181.149 540.442 180.549 541.442 180.549C542.942 180.549 544.042 182.049 543.642 183.549L539.242 197.449C538.942 198.449 537.942 199.049 536.942 199.049Z" fill="#96E1FF"/>
<path d="M547.543 199.449C545.943 199.349 544.943 197.849 545.343 196.349L557.843 156.549C558.143 155.549 559.043 154.949 560.043 154.849C561.643 154.849 562.843 156.349 562.343 157.949L549.843 197.749C549.543 198.849 548.543 199.549 547.543 199.449Z" fill="#6DAFA7"/>
<path d="M558.443 199.949C556.843 199.849 555.743 198.249 556.143 196.749L564.343 170.549C564.643 169.549 565.643 168.849 566.643 168.849C568.343 168.849 569.543 170.449 569.043 172.049L560.843 198.249C560.543 199.249 559.543 199.949 558.443 199.949Z" fill="#63737A"/>
<path d="M569.842 200.449C568.142 200.349 567.042 198.749 567.542 197.149L569.242 191.549C569.542 190.449 570.642 189.749 571.742 189.749C573.442 189.749 574.642 191.449 574.142 193.049L572.442 198.649C572.042 199.749 570.942 200.449 569.842 200.449Z" fill="#F4C2C9"/>
<path d="M581.543 200.949C579.843 200.849 578.643 199.149 579.143 197.549L587.643 170.549C587.943 169.449 589.043 168.649 590.143 168.649C591.943 168.649 593.243 170.349 592.743 172.049L584.243 199.049C583.843 200.249 582.743 200.949 581.543 200.949Z" fill="#96E1FF"/>
<path d="M592.743 138.848C592.943 138.148 592.642 137.548 592.142 137.548C591.542 137.548 590.942 138.148 590.642 138.948C590.442 139.648 590.743 140.248 591.243 140.248C591.843 140.148 592.543 139.548 592.743 138.848Z" fill="#63737A"/>
<path d="M597.942 138.549C598.142 137.849 597.842 137.249 597.242 137.249C596.642 137.249 595.942 137.949 595.742 138.649C595.542 139.349 595.842 139.949 596.442 139.949C597.042 139.849 597.742 139.249 597.942 138.549Z" fill="#63737A"/>
<path d="M603.242 138.249C603.442 137.549 603.142 136.948 602.542 136.948C601.942 136.948 601.242 137.648 601.042 138.348C600.842 139.048 601.142 139.648 601.742 139.648C602.342 139.648 603.042 138.949 603.242 138.249Z" fill="#63737A"/>
<path d="M291.943 62.2485C291.943 62.2485 284.743 62.5485 282.943 55.9485C281.143 49.3485 287.943 46.3485 287.943 52.5485C287.943 58.7485 278.243 61.4485 274.243 56.2485C270.143 51.0485 274.943 47.0485 276.243 50.0485C277.643 53.0485 274.443 59.3485 268.743 57.4485" stroke="#6DAFA7" stroke-width="1.8" stroke-miterlimit="10" stroke-linecap="round" stroke-linejoin="round"/>
<path d="M377.943 72.5485C377.943 72.5485 390.243 71.8485 389.443 62.9485C388.643 54.0485 380.643 70.5485 391.343 70.3485C401.943 70.1485 401.443 60.0485 398.243 59.3485C395.043 58.6485 395.843 66.4485 401.743 65.9485C407.643 65.4485 408.543 61.8485 408.543 61.8485" stroke="#6DAFA7" stroke-width="1.8" stroke-miterlimit="10" stroke-linecap="round" stroke-linejoin="round"/>
<path d="M337.343 55.2485C337.343 53.3485 335.843 51.8485 333.943 51.8485C332.043 51.8485 330.543 53.3485 330.543 55.2485C330.543 57.1485 332.043 58.6485 333.943 58.6485C335.843 58.6485 337.343 57.1485 337.343 55.2485Z" fill="#6DAFA7"/>
<path d="M353.743 18.3485C354.143 24.1485 352.043 29.4485 348.543 33.2485C344.743 37.3485 342.643 42.7485 342.643 48.3485V51.8485C342.643 53.7485 341.043 55.3485 339.143 55.3485H328.943C327.043 55.3485 325.443 53.7485 325.443 51.8485V48.3485C325.443 42.7485 323.343 37.3485 319.543 33.3485C316.243 29.8485 314.243 25.0485 314.243 19.8485C314.243 8.44851 323.943 -0.751489 335.443 0.0485112C345.143 0.648511 353.043 8.54851 353.743 18.3485Z" fill="#96E1FF"/>
<path d="M325.343 48.3485H342.543" stroke="#223145" stroke-width="1.8" stroke-miterlimit="10" stroke-linecap="round" stroke-linejoin="round"/>
<path d="M325.343 51.7485H342.543" stroke="#223145" stroke-width="1.8" stroke-miterlimit="10" stroke-linecap="round" stroke-linejoin="round"/>
<path d="M332.143 48.3485V20.9485C332.143 18.4485 329.343 16.9485 327.243 18.3485C325.643 19.4485 325.443 21.8485 326.943 23.2485L328.143 24.3485" stroke="#223145" stroke-width="1.8" stroke-miterlimit="10" stroke-linecap="round" stroke-linejoin="round"/>
<path d="M335.743 48.3485V20.9485C335.743 18.4485 338.543 16.9485 340.643 18.3485C342.243 19.4485 342.443 21.8485 340.943 23.2485L339.743 24.3485" stroke="#223145" stroke-width="1.8" stroke-miterlimit="10" stroke-linecap="round" stroke-linejoin="round"/>
<path d="M253.743 123.849L244.943 43.2485C244.643 40.8485 242.743 38.8485 240.343 38.5485L126.243 23.6485C123.643 23.3485 121.443 25.5485 121.743 28.1485L132.943 124.249C133.243 126.949 135.543 128.949 138.243 128.949L249.643 128.349C252.143 128.349 254.043 126.249 253.743 123.849Z" fill="#63737A"/>
<path d="M258.842 123.449L250.042 42.2485C249.742 39.7485 247.842 37.8485 245.442 37.5485L130.542 22.5485C127.942 22.2485 125.642 24.4485 125.942 27.0485L137.242 123.849C137.542 126.549 139.842 128.549 142.542 128.549L254.842 127.949C257.242 127.949 259.042 125.849 258.842 123.449Z" fill="#223145"/>
<path d="M244.343 115.449H152.943L152.643 112.449L171.943 85.2485C174.243 81.9485 178.543 80.6485 182.343 82.2485L191.143 85.8485C195.143 87.4485 199.643 85.9485 201.843 82.3485L205.743 75.9485C207.943 72.3485 212.343 70.8485 216.243 72.3485C217.243 72.7485 218.343 72.9485 219.343 72.9485C222.043 72.9485 224.543 71.7485 226.243 69.5485L238.243 53.8485L244.343 115.449Z" fill="#96E1FF"/>
<path d="M152.643 112.449L145.743 52.6485" stroke="#6DAFA7" stroke-width="1.8" stroke-miterlimit="10" stroke-linecap="round" stroke-linejoin="round"/>
<path d="M152.343 109.749L168.043 68.7485C169.643 64.4485 174.443 62.3485 178.743 64.0485L186.843 67.2485C190.143 68.5485 193.943 67.5485 196.243 64.8485L201.643 58.2485C204.643 54.6485 209.943 54.1485 213.443 57.3485C216.143 59.8485 220.243 60.1485 223.343 58.1485L237.943 48.8485" stroke="#6DAFA7" stroke-width="1.8" stroke-miterlimit="10" stroke-linecap="round" stroke-linejoin="round"/>
<path d="M145.043 44.7485L144.443 39.9485C144.343 39.2485 144.943 38.5485 145.743 38.6485L167.443 40.9485C168.143 41.0485 168.643 41.5485 168.743 42.1485L169.443 46.5485C169.543 47.1485 169.043 47.6485 168.443 47.5485L146.343 45.9485C145.643 46.0485 145.143 45.4485 145.043 44.7485Z" fill="#6DAFA7"/>
<path d="M498.943 91.1485C475.843 113.549 447.143 117.949 436.743 102.549C427.543 88.9485 436.243 64.7485 455.043 47.2485C473.543 30.0485 497.943 22.9485 511.143 32.0485C526.043 42.2485 521.643 69.1485 498.943 91.1485Z" fill="#F8AB5D"/>
<path d="M495.643 87.7485C472.543 110.148 443.843 114.549 433.443 99.1485C424.243 85.5485 432.943 61.3485 451.743 43.8485C470.243 26.6485 494.643 19.5485 507.843 28.6485C522.843 38.9485 518.343 65.8485 495.643 87.7485Z" fill="#96E1FF"/>
<path d="M485.943 78.0485C472.043 91.3485 454.643 94.6485 447.643 85.7485C441.243 77.5485 446.343 62.0485 458.543 50.6485C470.643 39.3485 486.343 35.0485 494.443 41.4485C503.143 48.2485 499.643 64.8485 485.943 78.0485Z" fill="#6DAFA7"/>
<path d="M477.043 69.1485C471.543 74.3485 464.543 75.8485 461.543 72.5485C458.643 69.3485 460.543 62.8485 465.743 57.9485C470.943 53.0485 477.643 51.4485 480.843 54.3485C484.143 57.2485 482.543 63.9485 477.043 69.1485Z" fill="#F4C2C9"/>
<path d="M441.543 35.5485C439.443 37.5485 436.043 37.3485 434.143 35.2485L416.343 12.5485C415.443 11.3485 415.543 9.6485 416.643 8.6485C417.743 7.6485 419.443 7.6485 420.543 8.6485L441.743 28.1485C443.843 30.2485 443.743 33.5485 441.543 35.5485Z" fill="#223145"/>
<path d="M420.443 16.8485L414.743 17.6485C413.143 17.8485 412.543 19.8485 413.743 20.8485C417.243 23.9485 421.543 25.9485 426.143 26.7485L429.043 27.2485C429.343 27.3485 429.643 26.9485 429.443 26.6485L422.243 17.5485C421.743 17.0485 421.143 16.7485 420.443 16.8485Z" fill="#6DAFA7"/>
<path d="M424.643 13.0485L425.943 7.44849C426.243 5.94849 428.243 5.44849 429.243 6.74849C432.043 10.4485 433.743 14.8485 434.143 19.5485L434.343 22.4485C434.343 22.7485 433.943 22.9485 433.743 22.7485L425.243 14.9485C424.643 14.3485 424.443 13.6485 424.643 13.0485Z" fill="#6DAFA7"/>
<path d="M440.743 34.6485L446.443 40.7485" stroke="#223145" stroke-width="1.8" stroke-miterlimit="10" stroke-linecap="round" stroke-linejoin="round"/>
<path d="M560.843 87.2485V72.6485C560.843 71.9485 560.243 71.3485 559.543 71.3485H552.943C552.243 71.3485 551.643 71.9485 551.643 72.6485V87.2485H547.843C546.843 87.2485 546.243 88.3485 546.743 89.1485L555.043 102.249C555.543 103.049 556.643 103.049 557.143 102.249L565.443 89.1485C565.943 88.3485 565.343 87.2485 564.343 87.2485H560.843Z" fill="#6DAFA7"/>
<path d="M589.843 103.048V88.4485C589.843 87.7485 589.243 87.1485 588.543 87.1485H581.943C581.243 87.1485 580.643 87.7485 580.643 88.4485V103.048H576.843C575.843 103.048 575.243 104.148 575.743 104.948L584.043 118.048C584.543 118.848 585.643 118.848 586.143 118.048L594.443 104.948C594.943 104.148 594.343 103.048 593.343 103.048H589.843Z" fill="#223145"/>
<path d="M112.143 160.649C112.643 158.849 111.543 156.948 109.643 156.448C107.843 155.948 105.943 157.048 105.443 158.948C104.943 160.748 106.043 162.649 107.943 163.149C109.743 163.649 111.643 162.549 112.143 160.649Z" fill="#223145"/>
<path d="M116.343 152.449L116.543 151.549C117.343 148.649 115.543 145.648 112.643 144.848C109.743 144.048 106.743 145.849 105.943 148.749L105.743 149.649C105.443 150.649 104.943 151.548 104.243 152.348C103.643 152.948 103.043 153.649 102.443 154.249C101.143 155.649 101.843 157.949 103.643 158.449L108.643 159.749L113.643 161.049C115.443 161.549 117.243 159.849 116.743 158.049C116.543 157.149 116.343 156.249 116.143 155.449C116.043 154.549 116.043 153.449 116.343 152.449Z" fill="#6DAFA7"/>
<path d="M19.4426 115.948C19.4426 115.948 56.8426 107.448 56.2426 87.6485L113.443 92.1485C113.443 92.1485 112.743 116.448 75.4426 128.848C75.3426 128.848 35.6426 123.548 19.4426 115.948Z" fill="#96E1FF"/>
<path d="M67.3425 115.048L77.4425 116.448" stroke="#223145" stroke-width="1.8" stroke-miterlimit="10" stroke-linecap="round" stroke-linejoin="round"/>
<path d="M71.5427 111.048L83.2427 112.648" stroke="#223145" stroke-width="1.8" stroke-miterlimit="10" stroke-linecap="round" stroke-linejoin="round"/>
<path d="M61.5427 101.448C61.5427 101.448 87.3427 105.048 91.9427 105.648" stroke="#223145" stroke-width="1.8" stroke-miterlimit="10" stroke-linecap="round" stroke-linejoin="round"/>
<path d="M66.1427 107.648C64.4427 110.048 61.0427 113.948 55.5427 116.248C55.3427 116.348 55.0427 116.348 54.7427 116.348C50.8427 115.548 46.8427 114.648 43.0427 113.648C42.4427 113.548 42.4427 112.748 42.9427 112.548C45.4427 111.448 50.3427 109.148 54.6427 105.348C54.9427 105.048 55.3427 104.948 55.6427 105.048C57.7427 105.448 61.3427 105.948 65.7427 106.648C66.1427 106.848 66.4427 107.348 66.1427 107.648Z" fill="#223145"/>
<path d="M83.1426 96.2485C82.9426 97.3485 82.5426 98.3485 82.3426 98.9485C82.1426 99.3485 81.8426 99.5485 81.4426 99.4485L61.9426 97.3485C61.3426 97.2485 61.0426 96.7485 61.2426 96.1485C61.5426 95.4485 61.7426 94.7485 61.8426 93.9485C61.9426 93.5485 62.3426 93.2485 62.7426 93.2485L82.3426 95.0485C82.8426 95.3485 83.2426 95.7485 83.1426 96.2485Z" fill="#6DAFA7"/>
<path d="M422.643 126.549C418.743 135.049 409.343 140.649 402.943 138.949C397.343 137.449 396.243 130.749 399.843 124.149C403.243 117.749 410.343 112.749 416.343 112.549C423.043 112.449 426.343 118.549 422.643 126.549Z" fill="#F8AB5D"/>
<path d="M420.643 124.849C416.743 133.349 407.343 138.949 400.943 137.249C395.343 135.749 394.243 129.049 397.843 122.449C401.243 116.049 408.343 111.049 414.343 110.849C421.143 110.649 424.343 116.749 420.643 124.849Z" fill="#96E1FF"/>
<path d="M417.443 124.549C414.443 130.849 407.543 135.149 402.643 134.049C398.243 133.049 397.243 127.949 400.043 122.649C402.743 117.649 408.343 113.649 412.943 113.649C418.043 113.649 420.343 118.449 417.443 124.549Z" fill="#F8AB5D"/>
<path d="M404.143 129.949L404.543 129.249C404.643 128.949 404.643 128.749 404.443 128.649C403.943 128.449 403.543 128.249 403.343 127.949C403.243 127.849 403.243 127.549 403.443 127.249L403.543 127.149C403.743 126.849 404.143 126.749 404.243 126.949C404.543 127.249 405.043 127.549 405.643 127.649C406.643 127.849 407.743 127.149 408.243 126.249C408.743 125.349 408.443 124.649 407.643 124.049C406.543 123.249 406.043 122.349 406.843 120.949C407.443 119.749 408.643 118.849 409.943 118.549C410.143 118.549 410.443 118.349 410.543 118.049L410.943 117.349C411.043 117.049 411.443 116.849 411.643 116.849C411.843 116.849 411.943 117.049 411.843 117.349L411.543 117.949C411.443 118.249 411.443 118.449 411.743 118.449C412.143 118.549 412.443 118.649 412.743 118.849C412.943 118.949 412.843 119.249 412.643 119.549L412.543 119.649C412.343 119.949 411.943 120.049 411.743 119.949C411.443 119.749 411.043 119.549 410.443 119.549C409.343 119.449 408.543 120.149 408.243 120.849C407.843 121.649 408.143 122.149 409.043 122.849C410.243 123.749 410.543 124.749 409.743 126.249C409.143 127.549 407.843 128.648 406.343 128.848C406.143 128.848 405.843 129.048 405.743 129.348L405.343 130.149C405.143 130.449 404.843 130.649 404.643 130.649C404.043 130.449 403.943 130.249 404.143 129.949Z" fill="#96E1FF"/>
<path d="M100.842 272.948H91.0425L90.5425 290.749H99.9425L100.842 272.948Z" fill="#6DAFA7"/>
<path d="M90.5424 290.749L84.6424 469.949C84.5424 471.849 86.0424 473.349 87.9424 473.349C89.7424 473.349 91.1424 471.949 91.2424 470.249L99.9424 290.749H90.5424Z" fill="#B8D8C7"/>
<path d="M587.142 272.948H577.442L578.242 290.749H587.742L587.142 272.948Z" fill="#6DAFA7"/>
<path d="M578.242 290.749L586.942 470.249C587.042 472.049 588.442 473.349 590.242 473.349C592.142 473.349 593.642 471.849 593.542 469.949L587.642 290.749H578.242Z" fill="#B8D8C7"/>
<path d="M126.942 248.648L121.442 417.148C121.342 418.748 122.642 420.048 124.242 420.048C125.742 420.048 127.042 418.848 127.042 417.348L135.242 248.648H126.942Z" fill="#B8D8C7"/>
<path d="M551.242 248.648L556.742 417.148C556.842 418.748 555.542 420.048 553.942 420.048C552.442 420.048 551.142 418.848 551.142 417.348L542.942 248.648H551.242Z" fill="#B8D8C7"/>
<path d="M614.843 269.148H63.3425L121.143 241.648H557.143L614.843 269.148Z" fill="white"/>
<path d="M614.843 269.148H63.3425V276.648H614.843V269.148Z" fill="#B8D8C7"/>
<path d="M515.343 242.549C515.343 242.549 510.643 240.249 509.043 235.649C507.443 231.049 510.243 227.949 511.443 228.249C512.543 228.449 514.443 234.349 515.943 234.349C517.443 234.349 517.143 224.149 520.143 223.049C523.043 222.049 522.843 233.149 522.943 234.049C523.143 236.349 527.043 231.349 528.443 229.349C530.143 226.849 535.643 235.849 524.143 242.549C524.143 242.549 519.743 243.449 515.343 242.549Z" fill="#6DAFA7"/>
<path d="M534.743 243.649V244.049C534.643 249.949 533.443 255.849 531.343 261.449C530.943 262.349 530.043 263.049 529.043 263.049H511.043C510.043 263.049 509.143 262.449 508.743 261.449C506.643 255.849 505.443 250.049 505.343 244.049V243.649C505.343 242.549 506.143 241.749 507.243 241.749H532.843C533.943 241.649 534.743 242.549 534.743 243.649Z" fill="#223145"/>
<path d="M467.143 236.249C459.343 237.049 457.343 258.149 442.543 260.249C442.543 260.249 439.843 260.349 435.443 260.449C422.743 260.849 396.543 261.449 385.943 260.549C387.343 260.549 388.843 260.449 390.543 260.249C395.143 259.649 398.443 257.149 401.143 254.149C407.143 247.149 409.843 236.849 415.143 236.349H467.143V236.249Z" fill="#223145"/>
<path d="M401.043 254.149C398.343 257.249 395.043 259.649 390.443 260.249C388.843 260.449 387.243 260.549 385.843 260.549C374.643 260.549 371.343 254.349 371.343 254.349C371.343 254.349 389.243 255.149 401.043 254.149Z" fill="#6DAFA7"/>
<path d="M325.443 262.649H252.843V257.249H330.843C330.843 260.249 328.443 262.649 325.443 262.649Z" fill="#223145"/>
<path d="M268.443 262.648H156.543C152.943 262.648 149.743 260.148 148.843 256.648L130.443 183.348C129.743 180.648 131.843 177.948 134.643 177.948H246.543C250.143 177.948 253.343 180.448 254.243 183.948L272.643 257.249C273.343 259.949 271.343 262.648 268.443 262.648Z" fill="#223145"/>
<path d="M202.338 226.639C204.985 223.599 203.857 218.282 199.817 214.764C195.777 211.246 190.356 210.859 187.708 213.899C185.061 216.94 186.189 222.256 190.229 225.774C194.269 229.292 199.69 229.68 202.338 226.639Z" fill="#63737A"/>
<path d="M331.543 251.849H307.843C306.743 251.849 305.743 250.949 305.743 249.749C305.743 243.749 310.643 238.849 316.643 238.849H322.643C328.643 238.849 333.543 243.749 333.543 249.749C333.543 250.949 332.643 251.849 331.543 251.849Z" fill="#223145"/>
<path d="M475.943 254.249C473.743 253.849 470.143 252.749 468.943 248.749C467.743 244.749 476.843 236.049 479.643 236.049C482.443 236.149 487.543 238.849 490.243 242.649C492.843 246.449 487.943 248.849 488.543 250.649C489.143 252.549 483.543 255.749 475.943 254.249Z" fill="white" stroke="#B8D8C7" stroke-width="1.8" stroke-miterlimit="10" stroke-linecap="round" stroke-linejoin="round"/>
<path d="M468.943 248.749C468.943 248.749 473.643 252.149 475.843 251.149C478.043 250.249 479.743 247.349 483.643 247.749C487.543 248.049 486.743 241.349 483.643 240.249C480.543 239.149 478.343 246.149 475.843 246.249C473.443 246.349 472.743 244.749 475.043 242.949" fill="white"/>
<path d="M468.943 248.749C468.943 248.749 473.643 252.149 475.843 251.149C478.043 250.249 479.743 247.349 483.643 247.749C487.543 248.049 486.743 241.349 483.643 240.249C480.543 239.149 478.343 246.149 475.843 246.249C473.443 246.349 472.743 244.749 475.043 242.949" stroke="#B8D8C7" stroke-width="1.8" stroke-miterlimit="10" stroke-linecap="round" stroke-linejoin="round"/>
<path d="M464.243 260.449C464.243 260.449 466.743 257.549 465.643 255.949C464.543 254.349 463.643 253.849 463.143 252.949C462.443 251.549 462.543 248.549 460.943 247.049C459.443 245.649 456.743 247.949 450.743 247.149C446.143 246.549 441.943 253.649 443.543 255.649C445.043 257.649 445.743 258.049 445.743 258.049C445.743 258.049 444.843 259.849 445.343 260.949C445.843 262.049 449.343 263.649 454.643 264.149C460.043 264.749 464.243 260.449 464.243 260.449Z" fill="white" stroke="#B8D8C7" stroke-width="1.8" stroke-miterlimit="10" stroke-linecap="round" stroke-linejoin="round"/>
<path d="M445.743 258.149C445.743 258.149 450.543 261.849 453.943 261.049C457.343 260.249 460.643 254.049 460.443 252.349C460.243 250.649 458.843 249.849 455.443 252.949C452.043 256.049 449.443 255.249 449.743 252.549" fill="white"/>
<path d="M445.743 258.149C445.743 258.149 450.543 261.849 453.943 261.049C457.343 260.249 460.643 254.049 460.443 252.349C460.243 250.649 458.843 249.849 455.443 252.949C452.043 256.049 449.443 255.249 449.743 252.549" stroke="#B8D8C7" stroke-width="1.8" stroke-miterlimit="10" stroke-linecap="round" stroke-linejoin="round"/>
</g>
</svg>
